<svg id="Icon_awesome-sort-alpha-down" data-name="Icon awesome-sort-alpha-down" xmlns="http://www.w3.org/2000/svg" width="20.419" height="20.419" viewBox="0 0 20.419 20.419">
  <path id="Icon_awesome-sort-alpha-down-2" data-name="Icon awesome-sort-alpha-down" d="M8.022,16.835H5.834V2.979A.729.729,0,0,0,5.1,2.25H3.646a.729.729,0,0,0-.729.729V16.835H.729A.73.73,0,0,0,.215,18.08l3.646,4.376a.729.729,0,0,0,1.031,0L8.538,18.08A.73.73,0,0,0,8.022,16.835Zm10.939-2.917H13.127a.729.729,0,0,0-.729.729v1.459a.729.729,0,0,0,.729.729h2.552l-2.792,3.211a1.459,1.459,0,0,0-.49,1.09v.8a.729.729,0,0,0,.729.729h5.834a.729.729,0,0,0,.729-.729V20.481a.729.729,0,0,0-.729-.729H16.408L19.2,16.541a1.459,1.459,0,0,0,.49-1.09v-.8A.729.729,0,0,0,18.961,13.918Zm1.416-3.891-2.7-7.293a.729.729,0,0,0-.687-.484H15.1a.729.729,0,0,0-.687.484l-2.7,7.292A.729.729,0,0,0,12.4,11h1.132a.729.729,0,0,0,.694-.505l.2-.589h3.236l.2.589a.729.729,0,0,0,.7.505H19.69a.729.729,0,0,0,.686-.974ZM15.3,7.355l.747-2.188.747,2.188Z" transform="translate(0 -2.25)"/>
</svg>
