<svg id="Icon_awesome-sort-numeric-down" data-name="Icon awesome-sort-numeric-down" xmlns="http://www.w3.org/2000/svg" width="19.691" height="20.419" viewBox="0 0 19.691 20.419">
  <path id="Icon_awesome-sort-numeric-down-2" data-name="Icon awesome-sort-numeric-down" d="M13.856,5.167h.729V8.084h-.729a.729.729,0,0,0-.729.729v1.459a.729.729,0,0,0,.729.729h4.376a.729.729,0,0,0,.729-.729V8.813a.729.729,0,0,0-.729-.729H17.5v-5.1a.729.729,0,0,0-.729-.729H14.585a.729.729,0,0,0-.651.4L13.2,4.111a.729.729,0,0,0,.651,1.056Zm1.192,7.425a3.6,3.6,0,0,0-2.507,2.469,3.661,3.661,0,0,0,3.138,4.673,3.832,3.832,0,0,1-.95.588.752.752,0,0,0-.373.927l.451.912a.721.721,0,0,0,.953.452C18.4,21.485,19.691,19.8,19.691,16.6v-.491a3.657,3.657,0,0,0-4.642-3.514Zm1,4.425a.912.912,0,1,1,.912-.912.912.912,0,0,1-.912.912Zm-8.022-.182H5.834V2.979A.729.729,0,0,0,5.1,2.25H3.646a.729.729,0,0,0-.729.729V16.835H.729A.73.73,0,0,0,.215,18.08l3.646,4.376a.729.729,0,0,0,1.031,0L8.538,18.08A.73.73,0,0,0,8.022,16.835Z" transform="translate(0 -2.25)"/>
</svg>
